<svg id="visual" viewBox="0 0 1920 1080" width="1920" height="1080" xmlns="http://www.w3.org/2000/svg" xmlns:xlink="http://www.w3.org/1999/xlink" version="1.1"><path d="M0 709L45.7 707.3C91.3 705.7 182.7 702.3 274.2 689.5C365.7 676.7 457.3 654.3 548.8 656.7C640.3 659 731.7 686 823 692.7C914.3 699.3 1005.7 685.7 1097 672C1188.3 658.3 1279.7 644.7 1371.2 650.8C1462.7 657 1554.3 683 1645.8 690.2C1737.3 697.3 1828.7 685.7 1874.3 679.8L1920 674L1920 1081L1874.3 1081C1828.7 1081 1737.3 1081 1645.8 1081C1554.3 1081 1462.7 1081 1371.2 1081C1279.7 1081 1188.3 1081 1097 1081C1005.7 1081 914.3 1081 823 1081C731.7 1081 640.3 1081 548.8 1081C457.3 1081 365.7 1081 274.2 1081C182.7 1081 91.3 1081 45.7 1081L0 1081Z" fill="#4facf7"></path><path d="M0 724L45.7 736.2C91.3 748.3 182.7 772.7 274.2 781.5C365.7 790.3 457.3 783.7 548.8 770.2C640.3 756.7 731.7 736.3 823 747.3C914.3 758.3 1005.7 800.7 1097 810C1188.3 819.3 1279.7 795.7 1371.2 775.2C1462.7 754.7 1554.3 737.3 1645.8 741C1737.3 744.7 1828.7 769.3 1874.3 781.7L1920 794L1920 1081L1874.3 1081C1828.7 1081 1737.3 1081 1645.8 1081C1554.3 1081 1462.7 1081 1371.2 1081C1279.7 1081 1188.3 1081 1097 1081C1005.7 1081 914.3 1081 823 1081C731.7 1081 640.3 1081 548.8 1081C457.3 1081 365.7 1081 274.2 1081C182.7 1081 91.3 1081 45.7 1081L0 1081Z" fill="#2b9dfc"></path><path d="M0 871L45.7 871.5C91.3 872 182.7 873 274.2 871.2C365.7 869.3 457.3 864.7 548.8 866C640.3 867.3 731.7 874.7 823 874C914.3 873.3 1005.7 864.7 1097 870.5C1188.3 876.3 1279.7 896.7 1371.2 899.8C1462.7 903 1554.3 889 1645.8 871.7C1737.3 854.3 1828.7 833.7 1874.3 823.3L1920 813L1920 1081L1874.3 1081C1828.7 1081 1737.3 1081 1645.8 1081C1554.3 1081 1462.7 1081 1371.2 1081C1279.7 1081 1188.3 1081 1097 1081C1005.7 1081 914.3 1081 823 1081C731.7 1081 640.3 1081 548.8 1081C457.3 1081 365.7 1081 274.2 1081C182.7 1081 91.3 1081 45.7 1081L0 1081Z" fill="#008cff"></path><path d="M0 904L45.7 900.5C91.3 897 182.7 890 274.2 891.3C365.7 892.7 457.3 902.3 548.8 908.3C640.3 914.3 731.7 916.7 823 926.7C914.3 936.7 1005.7 954.3 1097 958C1188.3 961.7 1279.7 951.3 1371.2 942.8C1462.7 934.3 1554.3 927.7 1645.8 933.2C1737.3 938.7 1828.7 956.3 1874.3 965.2L1920 974L1920 1081L1874.3 1081C1828.7 1081 1737.3 1081 1645.8 1081C1554.3 1081 1462.7 1081 1371.2 1081C1279.7 1081 1188.3 1081 1097 1081C1005.7 1081 914.3 1081 823 1081C731.7 1081 640.3 1081 548.8 1081C457.3 1081 365.7 1081 274.2 1081C182.7 1081 91.3 1081 45.7 1081L0 1081Z" fill="#007aff"></path><path d="M0 974L45.7 979.2C91.3 984.3 182.7 994.7 274.2 1001.3C365.7 1008 457.3 1011 548.8 1013.7C640.3 1016.3 731.7 1018.7 823 1015C914.3 1011.3 1005.7 1001.7 1097 995.5C1188.3 989.3 1279.7 986.7 1371.2 989C1462.7 991.3 1554.3 998.7 1645.8 1001.5C1737.3 1004.3 1828.7 1002.7 1874.3 1001.8L1920 1001L1920 1081L1874.3 1081C1828.7 1081 1737.3 1081 1645.8 1081C1554.3 1081 1462.7 1081 1371.2 1081C1279.7 1081 1188.3 1081 1097 1081C1005.7 1081 914.3 1081 823 1081C731.7 1081 640.3 1081 548.8 1081C457.3 1081 365.7 1081 274.2 1081C182.7 1081 91.3 1081 45.7 1081L0 1081Z" fill="#0066ff"></path></svg>